<svg xmlns="http://www.w3.org/2000/svg" width="299.988" height="480.109" viewBox="0 0 468 749">
  <defs>
    <style>
      .cls-1 {
        fill: #f44336;
      }

      .cls-1, .cls-2, .cls-3, .cls-4 {
        fill-rule: evenodd;
      }

      .cls-1, .cls-2, .cls-4 {
        opacity: 0.7;
      }

      .cls-2 {
        fill: #2196f3;
      }

      .cls-4 {
        fill: #424242;
      }
    </style>
  </defs>
  <path id="Polygone_1" data-name="Polygone 1" class="cls-1" d="M466.934,354.653l-149.171,85.1L167.709,353.124l-0.883-171.738L316,96.282l150.054,86.634Z"/>
  <path id="Polygone_1-2" data-name="Polygone 1" class="cls-2" d="M301.434,259.859l-149.171,85.1L2.209,258.33,1.326,86.592,150.5,1.488,300.551,88.121Z"/>
  <path id="NOVA" class="cls-3" d="M134.818,632.626L110.6,589.951v22.46l24.219,42.579h11.914V583.017H134.818v49.609ZM106.6,654.99V583.017H94.681V654.99H106.6Zm58.643-20.9a33.805,33.805,0,0,0,5.859,11.377,25.779,25.779,0,0,0,8.936,7.129,29.957,29.957,0,0,0,11.132,2.881V645.81a14.726,14.726,0,0,1-6.152-2,15.671,15.671,0,0,1-5.127-5.029,27.134,27.134,0,0,1-3.467-8.252,51.967,51.967,0,0,1,0-23.682,26.569,26.569,0,0,1,3.418-8.2,15.073,15.073,0,0,1,5.078-4.883,16.477,16.477,0,0,1,6.25-2.051v-9.765a29.7,29.7,0,0,0-11.181,2.881,25.949,25.949,0,0,0-8.887,7.128,33.89,33.89,0,0,0-5.859,11.329A57.553,57.553,0,0,0,165.238,634.091Zm29.834-42.48a14.741,14.741,0,0,1,6.152,2,15.85,15.85,0,0,1,5.127,4.98,26.527,26.527,0,0,1,3.467,8.2,52.18,52.18,0,0,1,0,23.731,27.342,27.342,0,0,1-3.418,8.2,15.385,15.385,0,0,1-5.078,4.98,15.985,15.985,0,0,1-6.25,2.1v9.668A29.319,29.319,0,0,0,206.2,652.6a26.1,26.1,0,0,0,8.838-7.129,34.518,34.518,0,0,0,5.909-11.377,56.315,56.315,0,0,0,0-30.81,34.614,34.614,0,0,0-5.909-11.329,26.507,26.507,0,0,0-8.886-7.177,27.783,27.783,0,0,0-11.084-2.832v9.668Zm63.769,63.769h6.152V639.462l-15.136-56.445H236.478ZM269,636.337V655.38h5.079l23.437-72.363H284.232Zm77.149-53.222H334.525l-25.2,71.875h12.207l18.848-53.907,18.652,53.907h12.11Zm-12.4,49.023-2.734,7.91h18.652l-2.832-7.91H333.743Z"/>
  <path id="Random" class="cls-3" d="M135.218,747.333h5.859V711.347h-5.859v35.986Zm16.211-14.16a10.828,10.828,0,0,0,4.883-4.053,11.777,11.777,0,0,0,1.806-6.64,9.817,9.817,0,0,0-1.1-4.663,11.5,11.5,0,0,0-2.881-3.54,12.3,12.3,0,0,0-4.028-2.2,14.58,14.58,0,0,0-4.541-.732h-2.491v4.443h2.393a7.893,7.893,0,0,1,3.613.708,5.922,5.922,0,0,1,2.124,1.758,5.819,5.819,0,0,1,1,2.2,9.876,9.876,0,0,1,.244,2.027,10.951,10.951,0,0,1-.537,3.686,5.854,5.854,0,0,1-1.416,2.32,5.322,5.322,0,0,1-1.953,1.2,6.628,6.628,0,0,1-2.148.366h-3.321v4.3h2.735a4.01,4.01,0,0,0,.512-0.024,2.307,2.307,0,0,1,.318-0.025l6.787,13.037h6.2Zm21.216,3.3a4.355,4.355,0,0,1,1.538-1.538,6.15,6.15,0,0,1,2-.732,11.488,11.488,0,0,1,2.051-.2h1.074v-3.467h-2.149a14.767,14.767,0,0,0-3.857.513,10.641,10.641,0,0,0-3.394,1.563,8.423,8.423,0,0,0-2.441,2.685,7.583,7.583,0,0,0-.952,3.882,10.474,10.474,0,0,0,.659,3.955,6.5,6.5,0,0,0,1.831,2.588,7.307,7.307,0,0,0,2.71,1.416,11.583,11.583,0,0,0,3.2.439,2.959,2.959,0,0,0,.635-0.048v-3.955a3.82,3.82,0,0,1-2.612-1.27,4.994,4.994,0,0,1-.9-3.271A4.853,4.853,0,0,1,172.645,736.469Zm14.575,2.319v-6.347q0-1.708-.122-3.443a27.624,27.624,0,0,0-.464-3.442,7.03,7.03,0,0,0-1.2-2.856,6.918,6.918,0,0,0-2-1.832,8.244,8.244,0,0,0-2.539-.976,13.854,13.854,0,0,0-2.857-.293,17.437,17.437,0,0,0-3.1.269,18.382,18.382,0,0,0-2.759.708,13.11,13.11,0,0,0-2.246,1,6.081,6.081,0,0,0-1.465,1.1l2.2,3.369c0.2-.162.5-0.39,0.9-0.683a8.246,8.246,0,0,1,1.416-.806,12.5,12.5,0,0,1,1.757-.635,7.475,7.475,0,0,1,2.027-.268,10.459,10.459,0,0,1,2.026.171,2.552,2.552,0,0,1,1.441.83,4.2,4.2,0,0,1,.83,2.075,23.545,23.545,0,0,1,.244,3.808v10.3a7.291,7.291,0,0,1-1.636,1.685,5.349,5.349,0,0,1-2.124.952v3.711a10.257,10.257,0,0,0,3.2-1.392,4.832,4.832,0,0,0,1.929-2.173,5.156,5.156,0,0,0,.708,1.441,6,6,0,0,0,1.123,1.2,5.463,5.463,0,0,0,1.367.83,3.5,3.5,0,0,0,1.343.293l1.563-3.271a1.564,1.564,0,0,1-.855-0.83,5.352,5.352,0,0,1-.464-1.416,12.825,12.825,0,0,1-.195-1.539q-0.05-.756-0.049-1.147v-0.391Zm9.326-18.994v27.539h5.908V722.577l-0.634-2.783h-5.274Zm17.481,0.611a7.128,7.128,0,0,0-3.711-.9,9.909,9.909,0,0,0-3,.489,18.077,18.077,0,0,0-2.857,1.171v3.76a9.862,9.862,0,0,1,2.222-.708,10.326,10.326,0,0,1,1.831-.22,4.409,4.409,0,0,1,2.588.66,4.474,4.474,0,0,1,1.465,1.831,8.326,8.326,0,0,1,.683,2.685q0.147,1.515.147,3.174v14.99h5.957V731.855q0-1.172-.049-2.393a17.318,17.318,0,0,0-.268-2.417,11.048,11.048,0,0,0-.684-2.295,6.028,6.028,0,0,0-1.294-1.928A15.778,15.778,0,0,0,214.027,720.405ZM244.5,709.394v34.668l0.342,3.271h5.615V709.394H244.5ZM226.624,739.35a13.1,13.1,0,0,0,2.735,5.2,8.567,8.567,0,0,0,3.344,2.319,10.794,10.794,0,0,0,3.833.708,12.78,12.78,0,0,0,5.957-1.464v-5.078a5.182,5.182,0,0,1-4.052,1.9,4.9,4.9,0,0,1-2.613-.733,6.4,6.4,0,0,1-2.026-2,10.877,10.877,0,0,1-1.318-2.954,12.994,12.994,0,0,1-.489-3.637,14.66,14.66,0,0,1,.44-3.662,11.045,11.045,0,0,1,1.245-3.028,6.369,6.369,0,0,1,1.978-2.075,5.155,5.155,0,0,1,4.98-.22,7.032,7.032,0,0,1,1.855,1.416v-5.176a9.161,9.161,0,0,0-2.441-.976,11.886,11.886,0,0,0-2.881-.342,12.037,12.037,0,0,0-3.979.708,10,10,0,0,0-3.687,2.319,12.1,12.1,0,0,0-2.71,4.2,17.071,17.071,0,0,0-1.05,6.4A22.559,22.559,0,0,0,226.624,739.35Zm45.118-15.112a5.143,5.143,0,0,1,2.294,1.074,7.456,7.456,0,0,1,1.758,2.1,10.31,10.31,0,0,1,1.1,2.857,15.077,15.077,0,0,1,.366,3.393,11.565,11.565,0,0,1-1.538,6.1,6.172,6.172,0,0,1-3.979,3.076v4.688a12.474,12.474,0,0,0,4.785-1.319,11.6,11.6,0,0,0,3.711-2.954,13.754,13.754,0,0,0,2.368-4.3,16.081,16.081,0,0,0,.854-5.3,16.737,16.737,0,0,0-.83-5.322,14.235,14.235,0,0,0-2.319-4.37,11.336,11.336,0,0,0-3.687-3.027,11.8,11.8,0,0,0-4.882-1.294v4.59Zm-12.818,14.6a13.249,13.249,0,0,0,2.319,4.346,11.816,11.816,0,0,0,8.5,4.346v-4.688a4.58,4.58,0,0,1-2.271-1.025,6.975,6.975,0,0,1-1.684-2.1,11.291,11.291,0,0,1-1.05-2.881,15.392,15.392,0,0,1-.367-3.418,12.025,12.025,0,0,1,1.465-6.1,5.939,5.939,0,0,1,3.907-3.076V719.7A12.688,12.688,0,0,0,265,721.064a12.046,12.046,0,0,0-3.686,2.954,13.135,13.135,0,0,0-2.368,4.272,16.268,16.268,0,0,0-.831,5.274A17.029,17.029,0,0,0,258.924,738.837Zm32.2-19.043v27.539h5.957V722.626l-0.634-2.832h-5.323Zm25.83,0.147a13.222,13.222,0,0,0-2.685,1.22v3.858a9.014,9.014,0,0,1,2.588-.83,14.688,14.688,0,0,1,1.465-.147,2.762,2.762,0,0,1,2.026.659,3.849,3.849,0,0,1,.952,1.832,11.808,11.808,0,0,1,.317,2.661q0.024,1.49.025,3.149v14.99H327.5v-18.75a10.6,10.6,0,0,0-.61-3.637,8.768,8.768,0,0,0-1.709-2.906,7.654,7.654,0,0,0-2.564-1.88,7.532,7.532,0,0,0-3.125-.659A8.333,8.333,0,0,0,316.956,719.941Zm-8.911.586a7.209,7.209,0,0,0-3.784-.928,8.514,8.514,0,0,0-2.661.439,13.043,13.043,0,0,0-2.515,1.123v3.858a9.343,9.343,0,0,1,2.271-.757,10.136,10.136,0,0,1,1.733-.22,2.777,2.777,0,0,1,2,.659,3.739,3.739,0,0,1,.977,1.832,11.017,11.017,0,0,1,.293,2.661v18.139h5.908V731.855q0-1.269.024-2.417t-0.049-2.222a10.871,10.871,0,0,0-.341-2.075,6.344,6.344,0,0,0-.855-1.88A11.81,11.81,0,0,0,308.045,720.527Z"/>
  <path id="Polygone_1-3" data-name="Polygone 1" class="cls-4" d="M302.934,448.314l-149.171,85.1L3.709,446.784,2.826,275.046,152,189.942l150.054,86.634Z"/>
</svg>
